<svg id="svg" version="1.1" xmlns="http://www.w3.org/2000/svg" xmlns:xlink="http://www.w3.org/1999/xlink" width="400" height="400" viewBox="0, 0, 400,400"><g id="svgg"><path id="path0" d="M196.600 82.030 C 167.273 86.393,161.313 125.458,188.000 138.401 C 189.870 139.308,191.850 140.271,192.400 140.540 L 193.400 141.031 193.400 149.404 L 193.400 157.776 192.400 158.282 C 191.661 158.656,188.217 158.792,179.200 158.803 C 163.437 158.822,161.800 159.449,161.800 165.471 C 161.800 171.400,163.441 172.000,179.656 172.000 C 190.656 172.000,192.426 172.084,192.971 172.629 C 194.053 173.710,193.917 284.602,192.834 285.182 C 191.450 285.923,183.965 284.150,177.459 281.542 C 160.251 274.642,146.937 260.073,141.505 242.200 C 140.255 238.086,139.774 235.571,139.203 230.158 C 138.256 221.196,137.094 219.034,132.961 218.544 C 126.772 217.812,124.512 222.886,125.985 234.200 C 129.495 261.151,148.933 285.675,174.050 294.842 C 177.813 296.215,188.002 298.800,189.653 298.800 C 193.264 298.800,193.587 299.442,193.594 306.627 C 193.605 317.153,196.605 321.311,202.549 319.041 C 206.534 317.519,207.121 315.855,207.171 305.949 C 207.205 299.097,207.036 299.381,211.435 298.773 C 244.451 294.209,270.116 268.224,274.619 234.800 C 276.227 222.863,274.695 218.600,268.800 218.600 C 264.054 218.600,262.905 220.343,261.888 229.083 C 260.480 241.182,256.168 253.390,250.966 260.000 C 246.531 265.637,244.941 267.397,241.826 270.121 C 233.895 277.054,222.822 282.719,213.424 284.649 C 209.391 285.478,208.266 285.587,207.792 285.193 C 206.976 284.516,206.885 173.051,207.700 172.524 C 207.975 172.346,214.156 172.110,221.435 172.000 L 234.670 171.800 236.306 170.666 C 240.531 167.736,240.096 161.873,235.488 159.643 C 233.841 158.845,233.091 158.798,221.574 158.760 C 214.878 158.738,208.950 158.595,208.400 158.442 L 207.400 158.164 207.292 149.823 C 207.179 141.171,207.383 140.000,208.997 140.000 C 211.540 140.000,220.835 133.850,223.624 130.322 C 239.940 109.680,222.326 78.203,196.600 82.030 M204.827 95.835 C 216.589 99.275,220.541 113.281,212.356 122.518 C 204.461 131.428,189.497 128.930,185.469 118.030 C 180.565 104.759,191.697 91.996,204.827 95.835 " stroke="none" fill="#f9fbf9" fill-rule="evenodd"></path><path id="path1" d="M192.000 15.672 C 191.230 15.887,187.630 16.209,184.000 16.388 C 180.370 16.566,176.860 16.904,176.200 17.137 C 175.540 17.371,173.200 17.750,171.000 17.980 C 164.681 18.640,161.106 19.227,159.686 19.836 C 158.964 20.146,157.923 20.400,157.374 20.400 C 156.824 20.400,155.705 20.682,154.887 21.026 C 154.069 21.371,152.680 21.810,151.800 22.002 C 150.920 22.195,148.940 22.732,147.400 23.197 C 145.860 23.662,143.887 24.222,143.016 24.442 C 142.144 24.662,141.237 25.003,141.000 25.200 C 140.763 25.397,139.856 25.732,138.984 25.944 C 138.113 26.157,136.410 26.722,135.200 27.200 C 133.990 27.678,132.460 28.210,131.800 28.381 C 131.140 28.553,130.060 28.973,129.400 29.315 C 128.740 29.657,127.390 30.241,126.400 30.614 C 122.266 32.170,109.719 38.569,104.623 41.719 C 100.628 44.189,93.603 48.872,93.401 49.199 C 93.260 49.426,92.483 49.953,91.673 50.371 C 90.863 50.789,89.840 51.468,89.400 51.881 C 88.960 52.294,87.223 53.647,85.540 54.889 C 83.857 56.130,82.361 57.340,82.214 57.577 C 82.068 57.813,80.655 59.036,79.074 60.292 C 74.649 63.811,65.907 72.494,61.650 77.600 C 59.540 80.130,57.520 82.470,57.160 82.800 C 56.430 83.469,52.349 88.821,50.800 91.140 C 50.250 91.964,49.215 93.375,48.500 94.276 C 47.785 95.178,47.200 96.076,47.200 96.273 C 47.200 96.469,46.667 97.253,46.016 98.015 C 45.365 98.777,44.825 99.537,44.816 99.704 C 44.807 99.871,44.170 100.905,43.400 102.000 C 42.630 103.095,42.000 104.073,42.000 104.173 C 42.000 104.272,40.863 106.299,39.473 108.677 C 36.727 113.377,32.287 122.259,30.614 126.400 C 30.037 127.830,29.397 129.360,29.193 129.800 C 28.729 130.800,27.683 133.752,27.138 135.600 C 26.911 136.370,26.562 137.171,26.363 137.380 C 26.163 137.589,26.000 138.175,26.000 138.681 C 26.000 139.188,25.640 140.275,25.200 141.096 C 24.760 141.916,24.394 143.041,24.386 143.594 C 24.378 144.147,24.114 145.050,23.800 145.600 C 23.486 146.150,23.221 147.050,23.212 147.600 C 23.203 148.150,22.955 149.061,22.661 149.624 C 22.367 150.187,22.010 151.378,21.867 152.271 C 21.724 153.164,21.337 154.413,21.006 155.047 C 20.676 155.681,20.404 156.839,20.402 157.620 C 20.401 158.401,20.213 159.227,19.985 159.455 C 19.499 159.941,18.563 165.321,17.976 171.000 C 17.748 173.200,17.369 175.540,17.132 176.200 C 16.896 176.860,16.570 180.460,16.409 184.200 C 16.248 187.940,15.909 191.629,15.658 192.397 C 14.967 194.506,15.066 205.717,15.800 208.535 C 16.183 210.004,16.400 212.700,16.400 215.974 C 16.400 219.252,16.607 221.812,16.972 223.054 C 17.287 224.124,17.731 226.800,17.959 229.000 C 18.555 234.733,19.483 240.043,19.976 240.536 C 20.209 240.769,20.400 241.509,20.400 242.180 C 20.400 243.247,20.821 244.788,22.481 249.800 C 22.700 250.460,23.009 251.630,23.169 252.400 C 23.329 253.170,23.671 254.193,23.930 254.674 C 24.188 255.154,24.401 255.964,24.402 256.474 C 24.404 256.983,24.680 257.928,25.017 258.574 C 25.354 259.219,25.787 260.389,25.980 261.174 C 26.173 261.958,26.720 263.590,27.195 264.800 C 27.671 266.010,28.224 267.540,28.425 268.200 C 29.516 271.780,36.965 287.607,39.157 291.000 C 39.726 291.880,40.414 293.050,40.688 293.600 C 40.961 294.150,41.413 294.950,41.692 295.377 C 50.712 309.189,53.936 313.716,57.801 318.000 C 58.695 318.990,60.132 320.700,60.996 321.800 C 63.671 325.209,74.411 335.924,78.281 339.046 C 80.306 340.680,82.079 342.205,82.222 342.435 C 82.671 343.162,93.012 350.846,96.440 353.000 C 96.790 353.220,98.679 354.461,100.638 355.757 C 102.597 357.054,105.190 358.648,106.400 359.300 C 107.610 359.952,108.780 360.627,109.000 360.800 C 110.354 361.865,124.131 368.800,124.894 368.800 C 125.184 368.800,125.777 369.032,126.211 369.315 C 127.028 369.848,130.797 371.366,132.200 371.727 C 132.640 371.840,133.990 372.320,135.200 372.794 C 138.990 374.279,141.749 375.242,143.200 375.588 C 143.970 375.771,145.140 376.103,145.800 376.325 C 146.460 376.547,148.350 377.120,150.000 377.600 C 151.650 378.080,153.540 378.655,154.200 378.879 C 154.860 379.103,156.120 379.415,157.000 379.572 C 157.880 379.730,159.230 380.061,160.000 380.308 C 160.770 380.555,162.570 380.930,164.000 381.141 C 165.430 381.353,167.320 381.718,168.200 381.953 C 169.080 382.188,170.992 382.385,172.450 382.390 C 173.935 382.396,175.868 382.693,176.850 383.068 C 179.515 384.084,220.482 384.098,223.200 383.084 C 224.201 382.710,226.161 382.409,227.616 382.406 C 229.055 382.403,231.265 382.131,232.527 381.802 C 233.789 381.473,235.852 381.089,237.111 380.947 C 238.370 380.806,239.727 380.522,240.127 380.317 C 240.526 380.111,241.696 379.785,242.727 379.592 C 245.471 379.078,249.217 378.031,250.660 377.374 C 251.354 377.058,252.311 376.800,252.787 376.800 C 253.263 376.800,254.046 376.588,254.526 376.330 C 255.007 376.071,256.030 375.728,256.800 375.566 C 257.570 375.404,259.460 374.792,261.000 374.206 C 262.540 373.619,264.250 373.037,264.800 372.912 C 265.350 372.786,266.155 372.440,266.589 372.142 C 267.023 371.844,267.716 371.600,268.129 371.600 C 268.541 371.600,269.446 371.342,270.140 371.027 C 270.833 370.712,273.110 369.732,275.200 368.850 C 281.605 366.145,293.097 359.932,299.800 355.549 C 301.120 354.686,302.707 353.670,303.327 353.290 C 303.947 352.911,306.270 351.250,308.489 349.600 C 310.708 347.950,313.103 346.207,313.810 345.727 C 314.517 345.247,316.154 343.893,317.448 342.718 C 318.742 341.542,321.060 339.562,322.600 338.317 C 326.004 335.565,336.449 324.996,340.109 320.600 C 343.461 316.574,351.688 305.806,352.665 304.166 C 353.069 303.488,354.462 301.328,355.760 299.366 C 357.058 297.405,358.543 295.009,359.059 294.042 C 359.576 293.075,360.180 292.065,360.402 291.797 C 362.227 289.599,371.600 269.771,371.600 268.111 C 371.600 267.788,371.845 267.046,372.145 266.462 C 372.751 265.280,373.448 263.408,374.179 261.000 C 374.446 260.120,374.785 259.130,374.933 258.800 C 375.275 258.034,376.344 254.249,376.765 252.307 C 376.944 251.486,377.287 250.577,377.527 250.287 C 377.768 249.998,378.088 248.959,378.238 247.980 C 378.388 247.001,378.756 245.714,379.056 245.120 C 379.355 244.526,379.600 243.513,379.600 242.869 C 379.600 242.225,379.847 241.091,380.148 240.349 C 380.450 239.607,380.820 238.024,380.971 236.832 C 381.122 235.640,381.505 233.667,381.823 232.448 C 382.140 231.229,382.400 229.032,382.400 227.566 C 382.400 226.041,382.686 224.152,383.068 223.150 C 383.663 221.594,383.737 219.030,383.737 200.000 C 383.737 180.970,383.663 178.406,383.068 176.850 C 382.693 175.867,382.396 173.937,382.390 172.450 C 382.385 170.992,382.188 169.080,381.953 168.200 C 381.717 167.320,381.284 165.127,380.991 163.327 C 380.697 161.526,380.264 159.693,380.028 159.253 C 379.793 158.813,379.601 158.036,379.602 157.526 C 379.604 156.651,379.129 154.932,377.742 150.800 C 377.410 149.810,376.981 148.370,376.789 147.600 C 376.195 145.212,375.214 141.829,374.933 141.200 C 374.785 140.870,374.446 139.880,374.178 139.000 C 373.911 138.120,373.296 136.410,372.811 135.200 C 372.327 133.990,371.791 132.460,371.620 131.800 C 371.198 130.170,367.907 122.523,366.198 119.200 C 365.689 118.210,364.439 115.780,363.421 113.800 C 362.402 111.820,361.219 109.660,360.790 109.000 C 360.362 108.340,359.827 107.377,359.600 106.860 C 359.211 105.969,358.628 105.038,354.952 99.434 C 354.098 98.132,353.191 96.713,352.936 96.280 C 351.655 94.105,343.759 83.669,341.829 81.600 C 340.905 80.610,339.627 79.080,338.989 78.200 C 337.241 75.788,325.789 64.240,322.600 61.673 C 321.060 60.433,318.742 58.458,317.448 57.282 C 316.154 56.107,314.517 54.753,313.809 54.273 C 313.102 53.793,311.370 52.551,309.961 51.513 C 308.553 50.475,306.770 49.165,306.000 48.602 C 303.355 46.669,296.699 42.402,293.051 40.302 C 291.043 39.146,289.040 37.990,288.600 37.733 C 287.166 36.896,281.223 34.000,280.940 34.000 C 280.787 34.000,280.379 33.762,280.031 33.471 C 279.497 33.024,276.435 31.620,273.400 30.431 C 272.960 30.258,271.740 29.731,270.689 29.259 C 269.638 28.786,268.496 28.400,268.151 28.400 C 267.806 28.400,267.046 28.155,266.462 27.855 C 265.114 27.164,263.043 26.437,261.016 25.944 C 260.144 25.732,259.237 25.397,259.000 25.200 C 258.763 25.003,257.856 24.668,256.984 24.456 C 256.113 24.244,254.860 23.890,254.200 23.670 C 253.540 23.449,251.920 22.975,250.600 22.615 C 249.280 22.255,247.120 21.609,245.800 21.180 C 244.480 20.751,242.983 20.400,242.474 20.400 C 241.964 20.400,241.154 20.186,240.674 19.925 C 239.684 19.388,235.164 18.611,228.400 17.815 C 225.870 17.518,223.080 17.082,222.200 16.847 C 221.320 16.611,218.440 16.408,215.800 16.395 C 213.066 16.382,209.967 16.122,208.600 15.792 C 205.831 15.123,194.267 15.040,192.000 15.672 M207.919 82.838 C 216.017 84.888,222.852 90.516,226.768 98.356 C 232.928 110.692,229.893 126.072,219.688 134.238 C 217.540 135.957,210.038 140.000,208.997 140.000 C 207.383 140.000,207.179 141.171,207.292 149.823 L 207.400 158.164 208.400 158.442 C 208.950 158.595,214.878 158.738,221.574 158.760 C 233.091 158.798,233.841 158.845,235.488 159.643 C 240.096 161.873,240.531 167.736,236.306 170.666 L 234.670 171.800 221.435 172.000 C 214.156 172.110,207.975 172.346,207.700 172.524 C 206.885 173.051,206.976 284.516,207.792 285.193 C 208.266 285.587,209.391 285.478,213.424 284.649 C 222.822 282.719,233.895 277.054,241.826 270.121 C 244.941 267.397,246.531 265.637,250.966 260.000 C 256.168 253.390,260.480 241.182,261.888 229.083 C 262.905 220.343,264.054 218.600,268.800 218.600 C 274.695 218.600,276.227 222.863,274.619 234.800 C 270.116 268.224,244.451 294.209,211.435 298.773 C 207.036 299.381,207.205 299.097,207.171 305.949 C 207.121 315.855,206.534 317.519,202.549 319.041 C 196.605 321.311,193.605 317.153,193.594 306.627 C 193.587 299.442,193.264 298.800,189.653 298.800 C 188.002 298.800,177.813 296.215,174.050 294.842 C 148.933 285.675,129.495 261.151,125.985 234.200 C 124.512 222.886,126.772 217.812,132.961 218.544 C 137.094 219.034,138.256 221.196,139.203 230.158 C 141.685 253.662,156.051 272.958,177.459 281.542 C 183.965 284.150,191.450 285.923,192.834 285.182 C 193.917 284.602,194.053 173.710,192.971 172.629 C 192.426 172.084,190.656 172.000,179.656 172.000 C 163.441 172.000,161.800 171.400,161.800 165.471 C 161.800 159.449,163.437 158.822,179.200 158.803 C 188.217 158.792,191.661 158.656,192.400 158.282 L 193.400 157.776 193.400 149.404 L 193.400 141.031 192.400 140.540 C 191.850 140.271,189.870 139.308,188.000 138.401 C 174.446 131.827,167.872 117.595,171.925 103.600 C 176.438 88.019,192.284 78.879,207.919 82.838 M195.505 95.977 C 179.815 100.992,180.706 124.149,196.720 127.550 C 209.876 130.344,220.912 116.935,215.278 105.000 C 211.634 97.279,203.311 93.481,195.505 95.977 " stroke="none" fill="#1cd414" fill-rule="evenodd"></path></g></svg>